<svg xmlns="http://www.w3.org/2000/svg" fill="none" viewBox="0 0 119 42"><path fill="#000" d="M70.083 14.415c.117.293.232.53.303.776.13.467-.09.826-.57.913-.278.049-.564.043-.845.062l-.398.025c.349.315.709.429 1.107.453.651.04 1.305.076 1.957.128.73.06 1.057.301 1.196 1.018.11.57.333 1.054.69 1.505.16.2.261.48.302.735.066.421-.226.734-.648.698a2.9 2.9 0 0 1-.91-.228c-.527-.23-1.066-.464-1.535-.785-.466-.32-.949-.516-1.502-.537-.632-.022-1.118-.318-1.524-.777-.201-.228-1.07-.413-1.34-.285-.082.038-.14.133-.202.204-.24.266-.46.55-.722.795-.5.467-1.093.606-1.72.32-.643-.293-1.26-.64-1.88-.974-.65-.348-1.26-.782-2.012-.91-.213-.035-.425-.09-.553.139-.142.252-.393.48-.213.828.253.489.556.89 1.153 1.005.39.073.589.347.58.649-.008.301-.218.57-.618.61q-1.461.14-2.93.177a1.06 1.06 0 0 1-.706-.285c-1.537-1.572-3.467-2.4-5.536-2.99-1.035-.296-2.05-.692-3.104-.882-1.02-.185-2.077-.212-3.118-.223-2.66-.027-5.32-.008-7.98-.008h-.46c.103-.144.171-.245.245-.345 1.877-2.56 3.739-5.13 5.641-7.671.556-.744.682-1.605.864-2.458.142-.657.254-1.32.39-1.98.022-.105.08-.233.16-.293 1.154-.823 1.876-1.947 2.317-3.267.178-.53.576-.7 1.072-.431.188.103.376.233.517.39.537.598 1.066 1.2 1.581 1.82.499.6.524 1.342.548 2.07.041 1.216.06 2.432.076 3.649.003.225.039.34.303.388.788.141.965.375 1.008 1.184.011.215.047.43.071.646.382 0 .75.011 1.115-.002.395-.014.676.155.927.448.793.926 1.613 1.827 2.395 2.759.281.337.61.453 1.025.448.608-.005.608.003.837.586.019.05.043.095.076.16.06-.05.115-.086.156-.132 1.155-1.317 2.313-2.632 3.453-3.96.111-.127.155-.347.16-.526.017-.454-.021-.91-.008-1.364.008-.306.137-.583.453-.692.332-.111.632.003.864.247.79.826 1.578 1.651 2.346 2.496.224.244.445.266.725.168.237-.084.393-.223.412-.489q.046-.649.103-1.298c.014-.15.03-.304.077-.448.147-.453.637-.6.986-.277.23.212.404.48.597.73.177.229.35.462.553.734.292-.275.554-.516.813-.76.338-.324.651-.68 1.019-.962.218-.168.512-.277.785-.318.417-.06.848-.046 1.273-.048.275 0 .455-.093.594-.353.303-.565.646-1.106.998-1.695.087.122.152.217.22.31.965 1.325 1.916 2.666 2.911 3.97.275.36.67.643 1.038.923 1.063.81 2.148 1.594 3.214 2.403.531.405.916.915 1.057 1.594.096.454.262.894.376 1.344.071.277-.01.522-.258.685-.262.17-.532.127-.758-.06-.502-.418-.97-.88-1.488-1.27a7.5 7.5 0 0 0-1.273-.767c-.987-.48-1.995-.915-2.984-1.39-.205-.098-.35-.1-.483.065-.338.421-.673.842-.995 1.276-.141.19-.229.419-.365.614-.177.253-.439.353-.744.302-.3-.052-.469-.253-.564-.527q-.088-.261-.172-.527c-.193-.608-.973-1.051-1.64-.687-.284.155-.581.29-.878.434zM0 26.36h2.224L3.881 37.68l1.64-11.313h2.277l1.64 11.315c.54-3.698 1.099-7.505 1.655-11.318h2.23c-.928 5.162-1.849 10.303-2.775 15.478-.695 0-1.377.006-2.06-.01-.064 0-.164-.13-.178-.212-.338-2.143-.679-4.285-.992-6.43-.229-1.578-.417-3.161-.632-4.807-.044.111-.082.166-.09.225-.311 2.268-.61 4.535-.932 6.803-.2 1.406-.428 2.808-.657 4.211-.014.085-.15.21-.235.212-.588.02-1.177.006-1.766.014-.174 0-.245-.057-.275-.234q-.485-2.74-.979-5.477-.83-4.628-1.657-9.254c-.027-.16-.057-.32-.092-.522zM59.424 26.282c1.714.065 3.377.027 5.012.22 1.744.203 2.592 1.224 2.78 2.986q.071.666.073 1.331c.009 2.031.022 4.063-.008 6.091-.01.7-.07 1.415-.231 2.094-.41 1.74-1.54 2.683-3.331 2.775-1.35.068-2.7.04-4.053.065-.188.003-.259-.065-.245-.244.005-.087 0-.174 0-.261V26.281zm2.215 13.873c.65 0 1.273.052 1.884-.014.81-.086 1.374-.697 1.477-1.507.05-.374.08-.757.08-1.135q.016-3.11.007-6.221c0-.573-.013-1.151-.087-1.722-.112-.866-.531-1.355-1.322-1.48-.66-.103-1.338-.097-2.038-.143zM100.979 41.841V26.404c.033-.022.052-.046.068-.046 1.663.024 3.336-.188 4.974.252 1.701.459 2.595 1.55 2.669 3.3.024.602.013 1.221-.093 1.813-.191 1.068-.717 1.928-1.818 2.36l2.499 7.753c-.717 0-1.39.008-2.06-.014-.074 0-.175-.165-.207-.271a1487 1487 0 0 1-2.006-6.428q-.159-.505-.706-.505c-.284 0-.567.016-.851-.005-.275-.022-.294.122-.294.334.006 1.216 0 2.433 0 3.65 0 .977-.008 1.954.006 2.932.002.244-.071.318-.317.312-.607-.016-1.215-.005-1.867-.005zm2.246-13.925q-.015.052-.03.106c-.006.008-.016.02-.016.027-.006 1.583-.017 3.167-.009 4.75 0 .065.145.193.216.187.518-.032 1.046-.043 1.551-.152.744-.16 1.259-.622 1.463-1.374a3.8 3.8 0 0 0 .041-1.77c-.164-.815-.651-1.353-1.455-1.538-.575-.133-1.175-.16-1.764-.236zM22.466 41.844v-7.193h-3.91v7.174h-2.198v-15.46h2.183v6.607c.126.011.218.025.314.025 1.09 0 2.18-.008 3.27.008.276.003.35-.084.35-.35-.012-1.945-.006-3.889-.006-5.833v-.445h2.172c.008.119.025.244.025.369 0 4.899 0 9.797.008 14.696 0 .329-.082.432-.42.416-.575-.03-1.153-.008-1.79-.008zM82.08 36.891c.115.59.186 1.151.341 1.69.213.738.61 1.378 1.434 1.536.403.076.847.044 1.254-.04.501-.107.785-.498.883-.99.163-.827.038-1.612-.515-2.27a8.5 8.5 0 0 0-1.099-1.064c-.932-.768-1.891-1.501-2.826-2.267-1.401-1.146-1.992-3.101-1.453-4.831.455-1.453 1.516-2.205 2.982-2.422a5.5 5.5 0 0 1 2.456.19c1.84.567 2.561 2.12 2.679 3.565.005.082-.063.228-.126.245-.66.176-1.322.336-2.02.507-.046-.277-.073-.521-.13-.76a4.7 4.7 0 0 0-.248-.771c-.452-1.01-1.366-1.44-2.442-1.162-.807.206-1.246 1.012-1.099 1.995.112.734.467 1.323 1.042 1.785q1.36 1.094 2.73 2.18c1.047.831 1.865 1.822 2.186 3.153a4.8 4.8 0 0 1 .077 2.034c-.278 1.474-1.33 2.476-2.835 2.72-.804.131-1.608.12-2.398-.089-1.6-.424-2.42-1.564-2.821-3.08-.093-.355-.136-.724-.18-1.088-.01-.082.05-.24.104-.255.678-.182 1.362-.345 2.025-.508zM44.766 26.366h6.067v1.605h-3.867c-.009.146-.02.252-.02.355 0 1.434.009 2.868-.008 4.302-.003.312.101.383.39.374.676-.019 1.352-.005 2.028-.005h.368v1.618h-2.748v5.564h3.852v1.643h-6.062zM73.247 40.188h3.884v1.632h-6.053V26.374h6.053v1.594h-3.856c-.011.13-.025.233-.025.337 0 1.455.005 2.91-.005 4.363 0 .256.068.34.33.334.806-.016 1.61-.005 2.444-.005v1.63h-2.153q-.615 0-.616.621v4.936999999999999zM91.713 41.825V26.374h6.042v1.588H93.92v5.016h2.717v1.64h-2.711v5.564h3.829v1.643zM41.825 26.363v1.92H39.06v13.54h-2.186V28.304h-2.78v-1.942zM114.048 28.294h-2.775v-1.926H119v1.915h-2.758V41.817h-2.197V28.294zM28.8 26.36h2.172v15.481c-.678 0-1.352.003-2.022-.008-.049 0-.123-.103-.139-.17-.024-.093-.008-.194-.008-.291V26.36z"/></svg>
